{
  "accessors": [
    {
      "bufferView": 2,
      "componentType": 5126,
      "count": 3445,
      "max": [
        0.8994446396827698,
        0.5954563617706299,
        0.9005709290504456
      ],
      "min": [
        -0.9002962708473206,
        -0.49067580699920654,
        -0.9000523686408997
      ],
      "type": "VEC3"
    },
    {
      "bufferView": 2,
      "byteOffset": 41340,
      "componentType": 5126,
      "count": 3445,
      "max": [
        1.0,
        1.0,
        1.0
      ],
      "min": [
        -1.0,
        -0.9999982118606567,
        -1.0
      ],
      "type": "VEC3"
    },
    {
      "bufferView": 3,
      "componentType": 5126,
      "count": 3445,
      "max": [
        0.9999533891677856,
        1.0,
        0.999998152256012,
        1.0
      ],
      "min": [
        -0.9999672174453735,
        -1.0,
        -1.0,
        1.0
      ],
      "type": "VEC4"
    },
    {
      "bufferView": 1,
      "componentType": 5126,
      "count": 3445,
      "max": [
        0.7600896954536438,
        0.9850873947143555
      ],
      "min": [
        0.014912590384483337,
        0.01491248607635498
      ],
      "type": "VEC2"
    },
    {
      "bufferView": 0,
      "componentType": 5125,
      "count": 14592,
      "type": "SCALAR"
    },
    {
      "bufferView": 2,
      "byteOffset": 82680,
      "componentType": 5126,
      "count": 3432,
      "max": [
        0.6395568251609802,
        -0.2369001805782318,
        0.6398035883903503
      ],
      "min": [
        -0.6395288109779358,
        -0.35489407181739807,
        -0.6392820477485657
      ],
      "type": "VEC3"
    },
    {
      "bufferView": 2,
      "byteOffset": 123864,
      "componentType": 5126,
      "count": 3432,
      "max": [
        0.9992964267730713,
        0.9972299933433533,
        0.9992964267730713
      ],
      "min": [
        -0.9992963671684265,
        -0.9964422583580017,
        -0.9992964267730713
      ],
      "type": "VEC3"
    },
    {
      "bufferView": 3,
      "byteOffset": 55120,
      "componentType": 5126,
      "count": 3432,
      "max": [
        0.9978970885276794,
        0.9921826720237732,
        0.9978971481323242,
        1.0
      ],
      "min": [
        -0.9978969097137451,
        -0.9863219261169434,
        -0.9978971481323242,
        1.0
      ],
      "type": "VEC4"
    },
    {
      "bufferView": 1,
      "byteOffset": 27560,
      "componentType": 5126,
      "count": 3432,
      "max": [
        0.9419143199920654,
        0.9919813275337219
      ],
      "min": [
        0.008018633350729942,
        0.008018633350729942
      ],
      "type": "VEC2"
    },
    {
      "bufferView": 0,
      "byteOffset": 58368,
      "componentType": 5125,
      "count": 16632,
      "type": "SCALAR"
    },
    {
      "bufferView": 2,
      "byteOffset": 165048,
      "componentType": 5126,
      "count": 586,
      "max": [
        0.1122797504067421,
        0.5954559445381165,
        0.11252641677856445
      ],
      "min": [
        -0.11225167661905289,
        -0.4787890911102295,
        -0.11200505495071411
      ],
      "type": "VEC3"
    },
    {
      "bufferView": 2,
      "byteOffset": 172080,
      "componentType": 5126,
      "count": 586,
      "max": [
        1.0,
        1.0,
        1.0
      ],
      "min": [
        -1.0,
        -0.9893504977226257,
        -1.0
      ],
      "type": "VEC3"
    },
    {
      "bufferView": 3,
      "byteOffset": 110032,
      "componentType": 5126,
      "count": 586,
      "max": [
        1.0,
        0.9925066828727722,
        1.0,
        1.0
      ],
      "min": [
        -1.0,
        -0.993756115436554,
        -1.0,
        1.0
      ],
      "type": "VEC4"
    },
    {
      "bufferView": 1,
      "byteOffset": 55016,
      "componentType": 5126,
      "count": 586,
      "max": [
        0.9687245488166809,
        0.991546630859375
      ],
      "min": [
        0.00845324993133545,
        0.00845324993133545
      ],
      "type": "VEC2"
    },
    {
      "bufferView": 0,
      "byteOffset": 124896,
      "componentType": 5125,
      "count": 2292,
      "type": "SCALAR"
    },
    {
      "bufferView": 2,
      "byteOffset": 179112,
      "componentType": 5126,
      "count": 240,
      "max": [
        0.5410910248756409,
        0.5570464134216309,
        0.5413378477096558
      ],
      "min": [
        -0.5410630106925964,
        0.13817408680915833,
        -0.5408162474632263
      ],
      "type": "VEC3"
    },
    {
      "bufferView": 2,
      "byteOffset": 181992,
      "componentType": 5126,
      "count": 240,
      "max": [
        0.9999975562095642,
        0.9999053478240967,
        0.9999975562095642
      ],
      "min": [
        -0.9999975562095642,
        -0.9539101123809814,
        -0.9999975562095642
      ],
      "type": "VEC3"
    },
    {
      "bufferView": 3,
      "byteOffset": 119408,
      "componentType": 5126,
      "count": 240,
      "max": [
        0.9999984502792358,
        0.00012687186244875193,
        0.9999984502792358,
        1.0
      ],
      "min": [
        -0.9999984502792358,
        -0.29949498176574707,
        -0.9999984502792358,
        1.0
      ],
      "type": "VEC4"
    },
    {
      "bufferView": 1,
      "byteOffset": 59704,
      "componentType": 5126,
      "count": 240,
      "max": [
        0.9932381510734558,
        0.8026280403137207
      ],
      "min": [
        0.006761946249753237,
        0.006761946249753237
      ],
      "type": "VEC2"
    },
    {
      "bufferView": 0,
      "byteOffset": 134064,
      "componentType": 5125,
      "count": 768,
      "type": "SCALAR"
    }
  ],
  "asset": {
    "extras": {
      "author": "nekiv (https://sketchfab.com/nekiv)",
      "license": "CC-BY-4.0 (http://creativecommons.org/licenses/by/4.0/)",
      "source": "https://sketchfab.com/3d-models/wall-vent-fan-4be30c7e0e9745e38a054d8df7710c97",
      "title": "Wall Vent Fan"
    },
    "generator": "Sketchfab-15.5.0",
    "version": "2.0"
  },
  "bufferViews": [
    {
      "buffer": 0,
      "byteLength": 137136,
      "name": "floatBufferViews",
      "target": 34963
    },
    {
      "buffer": 0,
      "byteLength": 61624,
      "byteOffset": 137136,
      "byteStride": 8,
      "name": "floatBufferViews",
      "target": 34962
    },
    {
      "buffer": 0,
      "byteLength": 184872,
      "byteOffset": 198760,
      "byteStride": 12,
      "name": "floatBufferViews",
      "target": 34962
    },
    {
      "buffer": 0,
      "byteLength": 123248,
      "byteOffset": 383632,
      "byteStride": 16,
      "name": "floatBufferViews",
      "target": 34962
    }
  ],
  "buffers": [
    {
      "byteLength": 506880,
      "uri": "scene.bin"
    }
  ],
  "images": [
    {
      "uri": "textures/Shell_baseColor.png"
    },
    {
      "uri": "textures/Shell_metallicRoughness.png"
    },
    {
      "uri": "textures/Shell_normal.png"
    },
    {
      "uri": "textures/Blades_baseColor.png"
    },
    {
      "uri": "textures/Blades_metallicRoughness.png"
    },
    {
      "uri": "textures/Blades_normal.png"
    },
    {
      "uri": "textures/Rotor_baseColor.png"
    },
    {
      "uri": "textures/Rotor_metallicRoughness.png"
    },
    {
      "uri": "textures/Rotor_normal.png"
    },
    {
      "uri": "textures/fins_baseColor.png"
    },
    {
      "uri": "textures/fins_metallicRoughness.png"
    },
    {
      "uri": "textures/fins_normal.png"
    }
  ],
  "materials": [
    {
      "doubleSided": true,
      "name": "Shell",
      "normalTexture": {
        "index": 2
      },
      "occlusionTexture": {
        "index": 1
      },
      "pbrMetallicRoughness": {
        "baseColorTexture": {
          "index": 0
        },
        "metallicRoughnessTexture": {
          "index": 1
        }
      }
    },
    {
      "doubleSided": true,
      "name": "Blades",
      "normalTexture": {
        "index": 5
      },
      "occlusionTexture": {
        "index": 4
      },
      "pbrMetallicRoughness": {
        "baseColorTexture": {
          "index": 3
        },
        "metallicRoughnessTexture": {
          "index": 4
        }
      }
    },
    {
      "doubleSided": true,
      "name": "Rotor",
      "normalTexture": {
        "index": 8
      },
      "occlusionTexture": {
        "index": 7
      },
      "pbrMetallicRoughness": {
        "baseColorTexture": {
          "index": 6
        },
        "metallicRoughnessTexture": {
          "index": 7
        }
      }
    },
    {
      "doubleSided": true,
      "name": "fins",
      "normalTexture": {
        "index": 11
      },
      "occlusionTexture": {
        "index": 10
      },
      "pbrMetallicRoughness": {
        "baseColorTexture": {
          "index": 9
        },
        "metallicRoughnessTexture": {
          "index": 10
        }
      }
    }
  ],
  "meshes": [
    {
      "name": "Shell_Shell_0",
      "primitives": [
        {
          "attributes": {
            "NORMAL": 1,
            "POSITION": 0,
            "TANGENT": 2,
            "TEXCOORD_0": 3
          },
          "indices": 4,
          "material": 0,
          "mode": 4
        }
      ]
    },
    {
      "name": "Blades_Blades_0",
      "primitives": [
        {
          "attributes": {
            "NORMAL": 6,
            "POSITION": 5,
            "TANGENT": 7,
            "TEXCOORD_0": 8
          },
          "indices": 9,
          "material": 1,
          "mode": 4
        }
      ]
    },
    {
      "name": "Rotor_Rotor_0",
      "primitives": [
        {
          "attributes": {
            "NORMAL": 11,
            "POSITION": 10,
            "TANGENT": 12,
            "TEXCOORD_0": 13
          },
          "indices": 14,
          "material": 2,
          "mode": 4
        }
      ]
    },
    {
      "name": "Fins_fins_0",
      "primitives": [
        {
          "attributes": {
            "NORMAL": 16,
            "POSITION": 15,
            "TANGENT": 17,
            "TEXCOORD_0": 18
          },
          "indices": 19,
          "material": 3,
          "mode": 4
        }
      ]
    }
  ],
  "nodes": [
    {
      "children": [
        1
      ],
      "matrix": [
        1.0,
        0.0,
        0.0,
        0.0,
        0.0,
        2.220446049250313e-16,
        -1.0,
        0.0,
        0.0,
        1.0,
        2.220446049250313e-16,
        0.0,
        0.0,
        0.0,
        0.0,
        1.0
      ],
      "name": "Sketchfab_model"
    },
    {
      "children": [
        2
      ],
      "matrix": [
        0.009999999776482582,
        0.0,
        0.0,
        0.0,
        0.0,
        0.0,
        0.009999999776482582,
        0.0,
        0.0,
        -0.009999999776482582,
        0.0,
        0.0,
        0.0,
        0.0,
        0.0,
        1.0
      ],
      "name": "wall_vent_Fan.fbx"
    },
    {
      "children": [
        3,
        5,
        7,
        9
      ],
      "name": "RootNode"
    },
    {
      "children": [
        4
      ],
      "matrix": [
        4.371139006309477e-06,
        1.1102230246251565e-14,
        99.99999999999991,
        0.0,
        99.99999999999982,
        -4.371139006309477e-06,
        -4.371139011860592e-06,
        0.0,
        4.371139011860592e-06,
        99.99999999999991,
        -1.9984014443252818e-13,
        0.0,
        0.0,
        0.0,
        0.0,
        1.0
      ],
      "name": "Shell"
    },
    {
      "mesh": 0,
      "name": "Shell_Shell_0"
    },
    {
      "children": [
        6
      ],
      "matrix": [
        4.371139006309477e-06,
        1.1102230246251565e-14,
        99.99999999999991,
        0.0,
        99.99999999999982,
        -4.371139006309477e-06,
        -4.371139011860592e-06,
        0.0,
        4.371139011860592e-06,
        99.99999999999991,
        -1.9984014443252818e-13,
        0.0,
        0.0,
        0.0,
        0.0,
        1.0
      ],
      "name": "Blades"
    },
    {
      "mesh": 1,
      "name": "Blades_Blades_0"
    },
    {
      "children": [
        8
      ],
      "matrix": [
        4.371139006309477e-06,
        1.1102230246251565e-14,
        99.99999999999991,
        0.0,
        99.99999999999982,
        -4.371139006309477e-06,
        -4.371139011860592e-06,
        0.0,
        4.371139011860592e-06,
        99.99999999999991,
        -1.9984014443252818e-13,
        0.0,
        0.0,
        0.0,
        0.0,
        1.0
      ],
      "name": "Rotor"
    },
    {
      "mesh": 2,
      "name": "Rotor_Rotor_0"
    },
    {
      "children": [
        10
      ],
      "matrix": [
        4.371139006309477e-06,
        1.1102230246251565e-14,
        99.99999999999991,
        0.0,
        99.99999999999982,
        -4.371139006309477e-06,
        -4.371139011860592e-06,
        0.0,
        4.371139011860592e-06,
        99.99999999999991,
        -1.9984014443252818e-13,
        0.0,
        0.0,
        0.0,
        0.0,
        1.0
      ],
      "name": "Fins"
    },
    {
      "mesh": 3,
      "name": "Fins_fins_0"
    }
  ],
  "samplers": [
    {
      "magFilter": 9729,
      "minFilter": 9987,
      "wrapS": 10497,
      "wrapT": 10497
    }
  ],
  "scene": 0,
  "scenes": [
    {
      "name": "Sketchfab_Scene",
      "nodes": [
        0
      ]
    }
  ],
  "textures": [
    {
      "sampler": 0,
      "source": 0
    },
    {
      "sampler": 0,
      "source": 1
    },
    {
      "sampler": 0,
      "source": 2
    },
    {
      "sampler": 0,
      "source": 3
    },
    {
      "sampler": 0,
      "source": 4
    },
    {
      "sampler": 0,
      "source": 5
    },
    {
      "sampler": 0,
      "source": 6
    },
    {
      "sampler": 0,
      "source": 7
    },
    {
      "sampler": 0,
      "source": 8
    },
    {
      "sampler": 0,
      "source": 9
    },
    {
      "sampler": 0,
      "source": 10
    },
    {
      "sampler": 0,
      "source": 11
    }
  ]
}
