<svg xmlns="http://www.w3.org/2000/svg" xmlns:xlink="http://www.w3.org/1999/xlink" width="85" zoomAndPan="magnify" viewBox="0 0 63.75 30.000001" height="40" preserveAspectRatio="xMidYMid meet" version="1.0"><defs><g/><clipPath id="e4cd8fd9db"><path d="M 0.90625 1.367188 L 62.601562 1.367188 L 62.601562 27.597656 L 0.90625 27.597656 Z M 0.90625 1.367188 " clip-rule="nonzero"/></clipPath></defs><g clip-path="url(#e4cd8fd9db)"><path fill="#ff5400" d="M 48.117188 1.367188 C 56.246094 1.367188 62.835938 7.238281 62.835938 14.484375 C 62.835938 21.726562 56.246094 27.597656 48.117188 27.597656 L 15.632812 27.597656 C 7.503906 27.597656 0.914062 21.726562 0.914062 14.484375 C 0.914062 7.238281 7.503906 1.367188 15.632812 1.367188 L 48.117188 1.367188 " fill-opacity="1" fill-rule="nonzero"/></g><g fill="#ffffff" fill-opacity="1"><g transform="translate(8.484107, 18.216321)"><g><path d="M 5.15625 0 L 3.234375 -3.3125 L 1.953125 -3.3125 L 1.953125 0 L 0.890625 0 L 0.890625 -8.109375 L 3.515625 -8.109375 C 4.117188 -8.109375 4.632812 -8 5.0625 -7.78125 C 5.488281 -7.570312 5.804688 -7.289062 6.015625 -6.9375 C 6.222656 -6.582031 6.328125 -6.175781 6.328125 -5.71875 C 6.328125 -5.15625 6.164062 -4.660156 5.84375 -4.234375 C 5.519531 -3.816406 5.035156 -3.535156 4.390625 -3.390625 L 6.421875 0 Z M 1.953125 -4.15625 L 3.515625 -4.15625 C 4.085938 -4.15625 4.515625 -4.296875 4.796875 -4.578125 C 5.085938 -4.867188 5.234375 -5.25 5.234375 -5.71875 C 5.234375 -6.195312 5.085938 -6.566406 4.796875 -6.828125 C 4.515625 -7.097656 4.085938 -7.234375 3.515625 -7.234375 L 1.953125 -7.234375 Z M 1.953125 -4.15625 "/></g></g></g><g fill="#ffffff" fill-opacity="1"><g transform="translate(15.544787, 18.216321)"><g><path d="M 6.703125 -3.421875 C 6.703125 -3.222656 6.691406 -3.015625 6.671875 -2.796875 L 1.578125 -2.796875 C 1.617188 -2.160156 1.832031 -1.664062 2.21875 -1.3125 C 2.613281 -0.96875 3.09375 -0.796875 3.65625 -0.796875 C 4.113281 -0.796875 4.492188 -0.898438 4.796875 -1.109375 C 5.097656 -1.328125 5.3125 -1.613281 5.4375 -1.96875 L 6.578125 -1.96875 C 6.410156 -1.351562 6.070312 -0.851562 5.5625 -0.46875 C 5.050781 -0.0820312 4.414062 0.109375 3.65625 0.109375 C 3.050781 0.109375 2.507812 -0.0234375 2.03125 -0.296875 C 1.550781 -0.566406 1.175781 -0.953125 0.90625 -1.453125 C 0.632812 -1.953125 0.5 -2.535156 0.5 -3.203125 C 0.5 -3.859375 0.628906 -4.429688 0.890625 -4.921875 C 1.160156 -5.421875 1.53125 -5.800781 2 -6.0625 C 2.476562 -6.332031 3.03125 -6.46875 3.65625 -6.46875 C 4.257812 -6.46875 4.789062 -6.335938 5.25 -6.078125 C 5.71875 -5.816406 6.078125 -5.453125 6.328125 -4.984375 C 6.578125 -4.523438 6.703125 -4.003906 6.703125 -3.421875 Z M 5.609375 -3.65625 C 5.609375 -4.050781 5.519531 -4.394531 5.34375 -4.6875 C 5.164062 -4.976562 4.921875 -5.195312 4.609375 -5.34375 C 4.304688 -5.5 3.972656 -5.578125 3.609375 -5.578125 C 3.066406 -5.578125 2.609375 -5.40625 2.234375 -5.0625 C 1.859375 -4.726562 1.644531 -4.257812 1.59375 -3.65625 Z M 5.609375 -3.65625 "/></g></g></g><g fill="#ffffff" fill-opacity="1"><g transform="translate(22.744814, 18.216321)"><g><path d="M 3.515625 -6.46875 C 4.066406 -6.46875 4.550781 -6.347656 4.96875 -6.109375 C 5.382812 -5.867188 5.691406 -5.566406 5.890625 -5.203125 L 5.890625 -6.375 L 6.96875 -6.375 L 6.96875 0.140625 C 6.96875 0.722656 6.84375 1.238281 6.59375 1.6875 C 6.34375 2.144531 5.988281 2.5 5.53125 2.75 C 5.070312 3.007812 4.535156 3.140625 3.921875 3.140625 C 3.078125 3.140625 2.375 2.941406 1.8125 2.546875 C 1.257812 2.148438 0.9375 1.613281 0.84375 0.9375 L 1.890625 0.9375 C 2.003906 1.320312 2.242188 1.628906 2.609375 1.859375 C 2.972656 2.097656 3.410156 2.21875 3.921875 2.21875 C 4.503906 2.21875 4.976562 2.035156 5.34375 1.671875 C 5.707031 1.304688 5.890625 0.796875 5.890625 0.140625 L 5.890625 -1.203125 C 5.679688 -0.828125 5.367188 -0.515625 4.953125 -0.265625 C 4.546875 -0.015625 4.066406 0.109375 3.515625 0.109375 C 2.953125 0.109375 2.441406 -0.03125 1.984375 -0.3125 C 1.523438 -0.59375 1.160156 -0.984375 0.890625 -1.484375 C 0.628906 -1.992188 0.5 -2.566406 0.5 -3.203125 C 0.5 -3.859375 0.628906 -4.429688 0.890625 -4.921875 C 1.160156 -5.410156 1.523438 -5.789062 1.984375 -6.0625 C 2.441406 -6.332031 2.953125 -6.46875 3.515625 -6.46875 Z M 5.890625 -3.203125 C 5.890625 -3.679688 5.789062 -4.097656 5.59375 -4.453125 C 5.40625 -4.804688 5.144531 -5.078125 4.8125 -5.265625 C 4.488281 -5.460938 4.128906 -5.5625 3.734375 -5.5625 C 3.335938 -5.5625 2.972656 -5.46875 2.640625 -5.28125 C 2.316406 -5.09375 2.054688 -4.816406 1.859375 -4.453125 C 1.671875 -4.097656 1.578125 -3.679688 1.578125 -3.203125 C 1.578125 -2.710938 1.671875 -2.285156 1.859375 -1.921875 C 2.054688 -1.566406 2.316406 -1.296875 2.640625 -1.109375 C 2.972656 -0.921875 3.335938 -0.828125 3.734375 -0.828125 C 4.128906 -0.828125 4.488281 -0.921875 4.8125 -1.109375 C 5.144531 -1.296875 5.40625 -1.566406 5.59375 -1.921875 C 5.789062 -2.285156 5.890625 -2.710938 5.890625 -3.203125 Z M 5.890625 -3.203125 "/></g></g></g><g fill="#ffffff" fill-opacity="1"><g transform="translate(30.595165, 18.216321)"><g><path d="M 1.4375 -7.40625 C 1.238281 -7.40625 1.066406 -7.472656 0.921875 -7.609375 C 0.785156 -7.753906 0.71875 -7.925781 0.71875 -8.125 C 0.71875 -8.320312 0.785156 -8.488281 0.921875 -8.625 C 1.066406 -8.769531 1.238281 -8.84375 1.4375 -8.84375 C 1.632812 -8.84375 1.800781 -8.769531 1.9375 -8.625 C 2.070312 -8.488281 2.140625 -8.320312 2.140625 -8.125 C 2.140625 -7.925781 2.070312 -7.753906 1.9375 -7.609375 C 1.800781 -7.472656 1.632812 -7.40625 1.4375 -7.40625 Z M 1.953125 -6.375 L 1.953125 0 L 0.890625 0 L 0.890625 -6.375 Z M 1.953125 -6.375 "/></g></g></g><g fill="#ffffff" fill-opacity="1"><g transform="translate(33.451949, 18.216321)"><g><path d="M 3.15625 0.109375 C 2.664062 0.109375 2.222656 0.0234375 1.828125 -0.140625 C 1.441406 -0.304688 1.132812 -0.539062 0.90625 -0.84375 C 0.6875 -1.144531 0.566406 -1.488281 0.546875 -1.875 L 1.640625 -1.875 C 1.671875 -1.550781 1.816406 -1.289062 2.078125 -1.09375 C 2.347656 -0.894531 2.703125 -0.796875 3.140625 -0.796875 C 3.546875 -0.796875 3.863281 -0.882812 4.09375 -1.0625 C 4.320312 -1.238281 4.4375 -1.460938 4.4375 -1.734375 C 4.4375 -2.015625 4.3125 -2.222656 4.0625 -2.359375 C 3.820312 -2.492188 3.441406 -2.625 2.921875 -2.75 C 2.441406 -2.875 2.050781 -3 1.75 -3.125 C 1.457031 -3.257812 1.203125 -3.453125 0.984375 -3.703125 C 0.773438 -3.953125 0.671875 -4.285156 0.671875 -4.703125 C 0.671875 -5.023438 0.765625 -5.320312 0.953125 -5.59375 C 1.148438 -5.863281 1.425781 -6.078125 1.78125 -6.234375 C 2.144531 -6.390625 2.554688 -6.46875 3.015625 -6.46875 C 3.710938 -6.46875 4.28125 -6.289062 4.71875 -5.9375 C 5.15625 -5.582031 5.390625 -5.09375 5.421875 -4.46875 L 4.359375 -4.46875 C 4.335938 -4.800781 4.203125 -5.066406 3.953125 -5.265625 C 3.710938 -5.472656 3.382812 -5.578125 2.96875 -5.578125 C 2.59375 -5.578125 2.289062 -5.492188 2.0625 -5.328125 C 1.84375 -5.171875 1.734375 -4.960938 1.734375 -4.703125 C 1.734375 -4.484375 1.800781 -4.304688 1.9375 -4.171875 C 2.070312 -4.035156 2.238281 -3.925781 2.4375 -3.84375 C 2.644531 -3.769531 2.929688 -3.679688 3.296875 -3.578125 C 3.753906 -3.453125 4.125 -3.328125 4.40625 -3.203125 C 4.695312 -3.085938 4.945312 -2.910156 5.15625 -2.671875 C 5.363281 -2.429688 5.46875 -2.117188 5.46875 -1.734375 C 5.46875 -1.378906 5.367188 -1.0625 5.171875 -0.78125 C 4.984375 -0.507812 4.710938 -0.289062 4.359375 -0.125 C 4.015625 0.03125 3.613281 0.109375 3.15625 0.109375 Z M 3.15625 0.109375 "/></g></g></g><g fill="#ffffff" fill-opacity="1"><g transform="translate(39.513912, 18.216321)"><g><path d="M 2.1875 -5.5 L 2.1875 -1.75 C 2.1875 -1.4375 2.25 -1.210938 2.375 -1.078125 C 2.507812 -0.953125 2.738281 -0.890625 3.0625 -0.890625 L 3.84375 -0.890625 L 3.84375 0 L 2.890625 0 C 2.304688 0 1.863281 -0.132812 1.5625 -0.40625 C 1.269531 -0.675781 1.125 -1.125 1.125 -1.75 L 1.125 -5.5 L 0.296875 -5.5 L 0.296875 -6.375 L 1.125 -6.375 L 1.125 -7.96875 L 2.1875 -7.96875 L 2.1875 -6.375 L 3.84375 -6.375 L 3.84375 -5.5 Z M 2.1875 -5.5 "/></g></g></g><g fill="#ffffff" fill-opacity="1"><g transform="translate(43.741023, 18.216321)"><g><path d="M 6.703125 -3.421875 C 6.703125 -3.222656 6.691406 -3.015625 6.671875 -2.796875 L 1.578125 -2.796875 C 1.617188 -2.160156 1.832031 -1.664062 2.21875 -1.3125 C 2.613281 -0.96875 3.09375 -0.796875 3.65625 -0.796875 C 4.113281 -0.796875 4.492188 -0.898438 4.796875 -1.109375 C 5.097656 -1.328125 5.3125 -1.613281 5.4375 -1.96875 L 6.578125 -1.96875 C 6.410156 -1.351562 6.070312 -0.851562 5.5625 -0.46875 C 5.050781 -0.0820312 4.414062 0.109375 3.65625 0.109375 C 3.050781 0.109375 2.507812 -0.0234375 2.03125 -0.296875 C 1.550781 -0.566406 1.175781 -0.953125 0.90625 -1.453125 C 0.632812 -1.953125 0.5 -2.535156 0.5 -3.203125 C 0.5 -3.859375 0.628906 -4.429688 0.890625 -4.921875 C 1.160156 -5.421875 1.53125 -5.800781 2 -6.0625 C 2.476562 -6.332031 3.03125 -6.46875 3.65625 -6.46875 C 4.257812 -6.46875 4.789062 -6.335938 5.25 -6.078125 C 5.71875 -5.816406 6.078125 -5.453125 6.328125 -4.984375 C 6.578125 -4.523438 6.703125 -4.003906 6.703125 -3.421875 Z M 5.609375 -3.65625 C 5.609375 -4.050781 5.519531 -4.394531 5.34375 -4.6875 C 5.164062 -4.976562 4.921875 -5.195312 4.609375 -5.34375 C 4.304688 -5.5 3.972656 -5.578125 3.609375 -5.578125 C 3.066406 -5.578125 2.609375 -5.40625 2.234375 -5.0625 C 1.859375 -4.726562 1.644531 -4.257812 1.59375 -3.65625 Z M 5.609375 -3.65625 "/></g></g></g><g fill="#ffffff" fill-opacity="1"><g transform="translate(50.94105, 18.216321)"><g><path d="M 1.953125 -5.328125 C 2.140625 -5.691406 2.40625 -5.972656 2.75 -6.171875 C 3.09375 -6.378906 3.515625 -6.484375 4.015625 -6.484375 L 4.015625 -5.390625 L 3.734375 -5.390625 C 2.546875 -5.390625 1.953125 -4.75 1.953125 -3.46875 L 1.953125 0 L 0.890625 0 L 0.890625 -6.375 L 1.953125 -6.375 Z M 1.953125 -5.328125 "/></g></g></g></svg>